<?xml version="1.0" standalone="no"?>
<!DOCTYPE svg PUBLIC "-//W3C//DTD SVG 20010904//EN"
 "http://www.w3.org/TR/2001/REC-SVG-20010904/DTD/svg10.dtd">
<svg version="1.0" xmlns="http://www.w3.org/2000/svg"
 width="486.000000pt" height="289.000000pt" viewBox="0 0 486.000000 289.000000"
 preserveAspectRatio="xMidYMid meet">

<g transform="translate(0.000000,289.000000) scale(0.100000,-0.100000)"
fill="#000000" stroke="none">
<path d="M719 2538 c-2 -110 -9 -191 -18 -223 -5 -16 -12 -42 -15 -57 l-6 -28
2005 0 2005 0 0 185 0 185 -1985 0 -1985 0 -1 -62z m785 -75 l18 -38 19 38
c15 29 25 37 47 37 l27 0 0 -80 0 -80 -37 0 c-37 0 -37 0 -32 38 l5 37 -18
-32 c-21 -41 -27 -41 -43 -3 -15 36 -30 39 -30 5 0 -14 5 -25 10 -25 6 0 10
-4 10 -10 0 -5 -13 -10 -30 -10 -29 0 -40 13 -20 25 13 8 13 102 0 110 -17 11
0 25 29 25 22 0 31 -8 45 -37z m456 22 c0 -10 -10 -15 -32 -15 -31 1 -32 1
-14 15 25 19 46 19 46 0z m310 0 c0 -10 -10 -15 -32 -15 -31 1 -32 1 -14 15
25 19 46 19 46 0z m410 -5 c0 -11 7 -20 15 -20 8 0 15 9 15 20 0 16 7 20 30
20 17 0 30 -2 30 -4 0 -2 -16 -20 -35 -39 -35 -35 -46 -79 -25 -92 19 -11 -1
-25 -35 -25 -34 0 -54 14 -35 25 20 12 10 60 -20 92 -17 18 -30 34 -30 37 0 4
20 6 45 6 38 0 45 -3 45 -20z m623 -12 c-6 -30 -5 -32 10 -19 9 7 17 22 17 32
0 15 7 19 35 19 38 0 47 -14 15 -23 -36 -9 -34 -35 4 -81 20 -25 36 -47 36
-50 0 -17 -59 -3 -80 19 -13 14 -28 25 -33 25 -5 0 -6 -11 -3 -25 6 -24 4 -25
-34 -25 -38 0 -52 12 -30 25 13 8 13 85 1 105 -14 21 -4 30 34 30 34 0 34 -1
28 -32z m710 -28 c-4 -38 -2 -64 6 -73 14 -18 4 -27 -30 -27 -27 0 -28 0 -22
55 4 37 2 60 -7 70 -10 12 -8 16 11 24 46 19 49 15 42 -49z m279 -5 c0 -36 1
-71 2 -77 2 -20 -100 -21 -119 -2 -18 18 -20 65 -3 82 7 7 25 12 41 12 22 0
28 4 23 15 -4 10 2 19 17 25 36 14 37 13 39 -55z m326 23 c2 -21 -3 -39 -12
-47 -12 -10 -16 -6 -26 24 -9 28 -9 39 1 51 18 22 34 11 37 -28z m-193 -30
c-10 -25 -23 -36 -51 -44 -43 -12 -30 -29 15 -19 32 7 55 -13 45 -39 -7 -20
-39 -29 -85 -24 l-34 3 -1 65 c-1 62 6 79 32 80 6 0 9 -10 7 -24 -5 -27 15
-46 27 -25 5 7 4 21 -1 30 -7 15 -4 18 19 22 15 2 30 5 34 6 4 0 1 -14 -7 -31z
m-2687 -13 c2 -16 9 -37 17 -47 12 -18 13 -17 30 8 16 25 16 27 -6 50 l-22 24
41 0 c31 0 42 -4 42 -15 0 -8 5 -15 10 -15 6 0 10 6 10 14 0 10 14 14 50 14
49 0 50 -1 50 -32 0 -17 3 -41 6 -53 6 -21 3 -22 -70 -22 -65 0 -76 2 -74 16
2 9 -3 18 -9 20 -8 3 -13 -4 -13 -15 0 -18 -6 -19 -77 -17 -98 3 -93 1 -93 25
0 15 9 22 31 27 17 3 33 12 36 20 8 21 -3 26 -26 12 -11 -7 -24 -10 -28 -6
-13 13 20 27 57 25 31 -3 35 -7 38 -33z m460 -12 c2 -24 7 -43 12 -43 15 0 22
38 10 59 -9 18 -7 21 15 27 14 4 27 5 29 3 2 -2 6 -27 9 -56 l6 -52 -66 2 -67
2 0 35 c-1 19 -5 36 -11 37 -5 1 -10 -16 -9 -37 1 -39 0 -40 -32 -40 -32 0
-32 0 -27 41 5 33 3 41 -8 37 -9 -3 -14 -18 -13 -42 1 -36 0 -37 -30 -34 -22
2 -30 7 -27 18 3 8 6 29 7 45 1 17 2 33 3 36 0 4 45 6 99 5 l97 -1 3 -42z
m202 43 c0 -3 -10 -21 -21 -41 -23 -38 -20 -56 6 -35 19 15 28 9 19 -14 -4
-12 -19 -16 -55 -16 -53 0 -57 5 -33 51 17 35 12 48 -11 29 -12 -10 -15 -10
-15 2 0 8 3 18 7 21 7 8 103 10 103 3z m118 -8 c23 -23 13 -38 -23 -38 -35 0
-46 -12 -22 -27 6 -4 20 -6 30 -5 24 4 21 -15 -4 -23 -58 -19 -106 32 -75 80
18 28 72 35 94 13z m351 -2 c20 -24 9 -69 -20 -85 -57 -32 -119 21 -85 74 13
20 25 25 55 25 21 0 44 -6 50 -14z m83 -28 c2 -23 8 -43 15 -45 17 -6 27 41
13 66 -10 19 -8 21 20 21 28 0 30 -2 32 -40 0 -22 1 -46 2 -52 1 -9 -17 -13
-59 -13 l-60 0 -5 40 c-3 22 -9 46 -13 53 -6 8 0 12 22 12 28 0 30 -3 33 -42z
m218 20 c0 -16 -5 -19 -26 -15 -30 5 -43 -16 -26 -44 17 -27 16 -29 -21 -29
-43 0 -48 6 -34 37 8 18 8 29 0 43 -16 25 -9 28 53 28 47 -1 54 -3 54 -20z
m394 -1 c18 -88 18 -87 -19 -87 -33 0 -34 1 -29 30 4 16 4 37 0 46 -5 14 -9
14 -22 3 -11 -9 -14 -22 -9 -46 6 -31 4 -33 -24 -33 -28 0 -29 2 -24 35 3 20
1 41 -6 49 -15 18 -3 23 71 24 52 1 58 -1 62 -21z m135 9 c20 -24 9 -69 -20
-85 -57 -32 -119 21 -85 74 13 20 25 25 55 25 21 0 44 -6 50 -14z m94 -6 c3
-11 11 -20 17 -20 7 0 10 8 7 20 -4 17 0 20 29 20 27 0 34 -4 34 -20 0 -11 5
-20 11 -20 6 0 13 9 16 20 4 14 13 20 32 19 14 0 20 -3 13 -6 -7 -3 -24 -27
-37 -54 -14 -27 -29 -49 -34 -49 -5 0 -17 12 -26 27 l-18 27 -24 -30 c-15 -17
-27 -24 -30 -17 -2 6 -17 30 -34 52 -16 23 -29 43 -29 46 0 3 15 5 34 5 25 0
35 -5 39 -20z m345 8 c23 -23 13 -38 -23 -38 -35 0 -46 -12 -22 -27 6 -4 20
-6 30 -5 24 4 21 -15 -4 -23 -58 -19 -106 32 -75 80 18 28 72 35 94 13z m410
0 c23 -23 13 -38 -23 -38 -35 0 -46 -12 -22 -27 6 -4 20 -6 30 -5 24 4 21 -15
-4 -23 -58 -19 -106 32 -75 80 18 28 72 35 94 13z m70 -75 c-5 -26 -38 -29
-38 -4 0 15 6 21 21 21 14 0 19 -5 17 -17z"/>
<path d="M4210 2401 c0 -38 16 -48 30 -20 14 25 6 49 -15 49 -10 0 -15 -10
-15 -29z"/>
<path d="M4340 2320 c0 -5 11 -10 25 -10 14 0 25 5 25 10 0 6 -11 10 -25 10
-14 0 -25 -4 -25 -10z"/>
<path d="M1875 2420 c-18 -20 -18 -21 3 -43 19 -19 24 -20 32 -7 13 20 12 33
-3 54 -12 16 -14 16 -32 -4z"/>
<path d="M1672 2378 c6 -18 28 -21 28 -4 0 9 -7 16 -16 16 -9 0 -14 -5 -12
-12z"/>
<path d="M2460 2426 c0 -9 7 -16 16 -16 9 0 14 5 12 12 -6 18 -28 21 -28 4z"/>
<path d="M2800 2412 c0 -10 6 -26 13 -37 18 -23 30 -6 21 30 -7 29 -34 34 -34
7z"/>
<path d="M3630 2412 c0 -10 6 -26 13 -37 18 -23 30 -6 21 30 -7 29 -34 34 -34
7z"/>
<path d="M4080 2426 c0 -9 7 -16 16 -16 17 0 14 22 -4 28 -7 2 -12 -3 -12 -12z"/>
<path d="M4490 2426 c0 -9 7 -16 16 -16 17 0 14 22 -4 28 -7 2 -12 -3 -12 -12z"/>
<path d="M270 1887 c0 -195 2 -215 18 -230 27 -24 69 -21 86 6 8 12 17 42 21
67 14 94 46 170 91 218 41 42 44 50 44 99 l0 53 -130 0 -130 0 0 -213z"/>
<path d="M600 1519 c0 -357 -4 -587 -10 -599 -5 -10 -22 -21 -37 -25 -71 -17
-96 -68 -51 -99 19 -14 67 -16 319 -16 274 0 297 1 312 18 35 39 12 83 -50 97
-23 5 -34 14 -42 37 -7 21 -11 220 -11 599 l0 569 -215 0 -215 0 0 -581z"/>
<path d="M1110 2041 c0 -55 3 -61 29 -81 40 -28 78 -109 96 -205 17 -88 35
-115 76 -115 54 0 59 22 59 252 l0 208 -130 0 -130 0 0 -59z"/>
<path d="M1456 2087 c-12 -9 -17 -23 -14 -42 2 -23 12 -35 43 -51 l40 -20 3
-531 2 -531 -42 -24 c-33 -18 -44 -30 -46 -53 -6 -53 4 -55 313 -55 267 0 283
1 300 20 27 30 13 68 -33 87 -20 8 -40 20 -44 27 -4 6 -8 243 -8 526 0 283 4
520 8 526 4 7 24 19 44 27 46 19 60 57 33 87 -17 19 -33 20 -300 20 -215 0
-285 -3 -299 -13z"/>
<path d="M2175 2076 c-10 -15 -14 -33 -10 -46 7 -21 52 -50 79 -50 8 0 23 -11
34 -24 10 -14 106 -284 213 -601 l194 -576 29 3 30 3 113 380 113 380 0 148
c0 81 -3 147 -8 147 -4 0 -22 -55 -41 -122 -19 -68 -37 -126 -40 -131 -4 -4
-48 109 -98 250 l-90 258 -251 3 -251 2 -16 -24z"/>
<path d="M3040 1517 c0 -451 -3 -587 -12 -599 -7 -9 -30 -21 -51 -28 -56 -18
-72 -55 -37 -90 19 -19 33 -20 308 -20 316 0 326 2 320 55 -2 23 -13 35 -46
53 l-42 24 2 531 3 531 40 20 c31 16 41 28 43 51 6 52 -7 55 -280 55 l-248 0
0 -583z"/>
<path d="M3696 2087 c-12 -9 -17 -23 -14 -42 2 -23 12 -35 43 -51 l40 -20 3
-531 2 -531 -42 -24 c-33 -18 -44 -30 -46 -53 -6 -52 7 -55 280 -55 l248 0 0
660 0 660 -248 0 c-188 0 -253 -3 -266 -13z"/>
<path d="M4292 2043 l3 -57 51 -11 c110 -25 177 -86 230 -212 26 -60 29 -64
58 -61 49 5 56 31 56 226 l0 172 -200 0 -201 0 3 -57z"/>
<path d="M4431 1706 c-6 -7 -18 -36 -26 -64 -11 -34 -27 -61 -55 -86 -22 -20
-45 -36 -50 -36 -6 0 -10 -28 -10 -65 0 -53 3 -65 16 -65 28 0 80 -63 99 -120
10 -30 22 -61 28 -67 15 -20 65 -16 77 6 6 12 10 109 10 246 0 137 -4 234 -10
246 -13 22 -62 26 -79 5z"/>
<path d="M2308 1325 c-3 -320 -4 -331 -25 -372 -13 -23 -43 -56 -68 -73 -48
-33 -56 -57 -27 -83 16 -14 44 -17 183 -17 178 0 189 3 189 52 0 22 -10 34
-50 60 -82 54 -90 81 -90 290 l0 176 -46 134 c-26 73 -50 140 -55 148 -4 8 -9
-133 -11 -315z"/>
<path d="M4617 1183 c-4 -3 -25 -43 -47 -89 -27 -57 -54 -94 -86 -123 -45 -39
-134 -81 -174 -81 -17 0 -20 -7 -20 -55 l0 -55 205 0 205 0 0 186 c0 109 -4
193 -10 205 -10 18 -59 27 -73 12z"/>
<path d="M1610 693 c0 -10 16 -30 35 -46 21 -17 39 -43 46 -68 9 -27 17 -39
28 -37 13 3 17 20 19 81 3 71 1 77 -17 77 -11 0 -21 -5 -23 -10 -2 -7 -16 -5
-40 5 -47 19 -48 19 -48 -2z"/>
<path d="M3185 691 c-75 -45 -110 -122 -103 -221 5 -69 34 -128 78 -158 60
-41 107 -42 82 -2 -15 25 -17 346 -2 355 6 3 10 15 10 26 0 24 -26 25 -65 0z"/>
<path d="M3270 693 c0 -13 10 -22 32 -28 26 -8 38 -21 58 -63 36 -75 55 -67
55 23 l0 70 -30 1 c-16 1 -49 5 -72 9 -38 7 -43 5 -43 -12z"/>
<path d="M1505 676 c-101 -61 -127 -243 -48 -337 45 -52 133 -79 133 -40 0 10
-7 21 -15 25 -12 4 -15 32 -15 164 0 130 3 162 15 172 8 7 15 19 15 26 0 21
-41 16 -85 -10z"/>
<path d="M1854 686 c-66 -29 -109 -120 -102 -215 7 -99 58 -167 141 -186 23
-6 27 -4 27 14 0 12 -4 21 -10 21 -6 0 -10 63 -10 170 0 107 4 170 10 170 6 0
10 9 10 20 0 24 -21 25 -66 6z"/>
<path d="M1940 686 c0 -7 7 -19 15 -26 12 -10 15 -42 15 -172 0 -132 -3 -160
-15 -164 -8 -4 -15 -15 -15 -26 0 -18 4 -20 32 -14 135 27 193 241 96 352 -48
55 -128 86 -128 50z"/>
<path d="M2134 689 c-4 -7 0 -17 9 -24 15 -10 17 -35 17 -173 0 -139 -2 -162
-16 -170 -34 -19 -3 -32 77 -32 l79 0 0 184 c0 178 1 185 21 191 11 4 18 12
16 18 -5 17 -193 22 -203 6z"/>
<path d="M2444 689 c-4 -7 0 -17 10 -24 14 -11 16 -33 14 -175 -2 -116 -6
-165 -15 -167 -8 -3 -13 13 -15 48 -3 60 -22 75 -40 32 -15 -36 -48 -73 -65
-73 -7 0 -13 -9 -13 -20 0 -18 8 -19 145 -19 l145 -1 0 185 c0 177 1 184 21
190 11 4 18 12 16 18 -5 17 -193 22 -203 6z"/>
<path d="M2754 688 c-4 -6 0 -17 10 -23 14 -11 16 -33 14 -175 -2 -116 -6
-165 -15 -167 -8 -3 -13 13 -15 48 -3 60 -22 75 -40 32 -15 -36 -48 -73 -65
-73 -7 0 -13 -9 -13 -20 0 -18 8 -19 145 -19 l145 -1 0 205 0 205 -79 0 c-50
0 -83 -4 -87 -12z"/>
<path d="M2940 682 c0 -11 13 -23 34 -30 22 -8 39 -24 48 -43 21 -48 43 -33
46 34 l3 57 -66 0 c-56 0 -65 -3 -65 -18z"/>
<path d="M3454 688 c-4 -6 0 -16 9 -23 15 -10 17 -35 17 -173 0 -139 -2 -162
-16 -170 -9 -5 -14 -14 -10 -21 5 -7 57 -11 162 -11 132 0 154 2 154 15 0 9
-7 18 -15 21 -21 8 -19 35 10 139 17 60 23 101 19 124 -9 44 -14 33 -55 -118
-26 -95 -38 -127 -56 -138 -48 -32 -53 -18 -53 161 0 136 3 165 15 170 8 3 15
12 15 21 0 12 -16 15 -94 15 -61 0 -97 -4 -102 -12z"/>
<path d="M3788 683 c-3 -15 30 -175 48 -235 4 -15 -1 -18 -29 -18 -26 0 -36
-5 -40 -20 -5 -18 0 -20 38 -20 39 0 43 -3 48 -27 3 -17 0 -34 -9 -44 -8 -9
-11 -19 -7 -22 3 -4 48 -7 100 -7 93 0 112 8 79 34 -8 6 -33 91 -57 194 l-42
182 -63 0 c-52 0 -63 -3 -66 -17z"/>
<path d="M4020 630 c0 -56 3 -70 15 -70 9 0 20 12 25 28 5 15 16 40 25 55 24
46 20 57 -25 57 l-40 0 0 -70z"/>
<path d="M4120 516 c0 -154 -2 -185 -15 -190 -8 -3 -15 -12 -15 -21 0 -12 17
-15 99 -15 102 0 128 9 91 32 -19 12 -20 22 -20 195 l0 183 -70 0 -70 0 0
-184z"/>
<path d="M4280 688 c0 -7 9 -31 19 -53 11 -22 22 -48 25 -57 3 -10 12 -18 21
-18 12 0 15 14 15 70 l0 70 -40 0 c-25 0 -40 -5 -40 -12z"/>
<path d="M4384 688 c-4 -6 0 -16 9 -23 15 -10 17 -35 17 -173 0 -139 -2 -162
-16 -170 -34 -19 -3 -32 77 -32 l79 0 0 205 0 205 -79 0 c-50 0 -83 -4 -87
-12z"/>
<path d="M4570 682 c0 -11 13 -23 34 -30 22 -8 39 -24 48 -43 21 -48 43 -33
46 34 l3 57 -66 0 c-56 0 -65 -3 -65 -18z"/>
<path d="M2980 565 c0 -8 -9 -24 -20 -35 -11 -11 -20 -26 -20 -33 0 -8 9 -22
20 -32 11 -10 20 -24 20 -32 0 -18 27 -16 34 3 3 9 6 37 6 64 0 27 -3 55 -6
64 -8 20 -34 21 -34 1z"/>
<path d="M4610 565 c0 -8 -9 -24 -20 -35 -11 -11 -20 -26 -20 -33 0 -8 9 -22
20 -32 11 -10 20 -24 20 -32 0 -18 27 -16 34 3 3 9 6 37 6 64 0 27 -3 55 -6
64 -8 20 -34 21 -34 1z"/>
<path d="M3260 485 c0 -9 7 -18 15 -21 11 -5 15 -22 15 -69 0 -35 -4 -67 -10
-70 -5 -3 -10 -15 -10 -26 0 -26 25 -24 88 7 l52 26 0 63 c0 35 5 67 10 70 6
3 10 13 10 21 0 11 -18 14 -85 14 -70 0 -85 -3 -85 -15z"/>
<path d="M3030 396 c-12 -32 -49 -66 -72 -66 -11 0 -18 -7 -18 -20 0 -18 7
-20 65 -20 l65 0 0 65 c0 52 -3 65 -15 65 -9 0 -20 -11 -25 -24z"/>
<path d="M4660 396 c-12 -32 -49 -66 -72 -66 -11 0 -18 -7 -18 -20 0 -18 7
-20 65 -20 l65 0 0 65 c0 52 -3 65 -15 65 -9 0 -20 -11 -25 -24z"/>
<path d="M1695 380 c-9 -17 -31 -38 -50 -47 -36 -17 -49 -53 -19 -53 45 0 123
82 110 116 -9 22 -24 17 -41 -16z"/>
</g>
</svg>
